# xmcd
#
# Track frame offsets:
#	150
#	17707
#	35405
#	36812
#	52565
#
# Disc length: 907 seconds
#
# Revision: 1
# Processed by: cddbd v1.5PL3 Copyright (c) Steve Scherf et al.
# Submitted via: EasyCDDAExtractor 6.2.0.3
#
DISCID=2e038905
DTITLE=Nina Sky - Move Ya Body CDS
DYEAR=2004
DGENRE=R&B
TTITLE0=Move Ya Body ft Jabba (Radio Edit)
TTITLE1=Move Ya Body ft Jabba (Instrumental)
TTITLE2=Call Out Hook
TTITLE3=In A Dream (Radio Edit)
TTITLE4=In A Dream (Acappella)
EXTD=
EXTT0=
EXTT1=
EXTT2=
EXTT3=
EXTT4=
PLAYORDER=
